<svg width="56" height="56" viewBox="0 0 56 56" fill="none" xmlns="http://www.w3.org/2000/svg">
<circle cx="28" cy="28" r="28" fill="#1B6CA8"/>
<path fill-rule="evenodd" clip-rule="evenodd" d="M27.4292 28.6348C27.8101 29.265 28 30.0289 28 30.9273C28 31.856 27.785 32.6887 27.3489 33.4254C27.0723 33.9117 26.728 34.3238 26.3137 34.6546C25.8473 35.0376 25.2963 35.2995 24.6609 35.4403C24.0243 35.5812 23.3357 35.6522 22.5937 35.6522H16V20H23.0706C24.8539 20.0303 26.1176 20.5823 26.8637 21.6664C27.3113 22.3311 27.5325 23.1294 27.5325 24.057C27.5325 25.0139 27.3082 25.7798 26.8563 26.361C26.6049 26.6877 26.2334 26.984 25.7409 27.2522C26.4859 27.5433 27.0515 28.0024 27.4292 28.6348ZM19.1305 23.1304V26.2609H22.7827C23.6477 26.2609 24.3479 25.5607 24.3479 24.6957C24.3479 23.8306 23.6477 23.1304 22.7827 23.1304H19.1305ZM19.1305 28.3478V32H22.5218C23.5298 32 24.3479 31.1819 24.3479 30.1739C24.3479 29.1659 23.5298 28.3478 22.5218 28.3478H19.1305Z" fill="#FEFEFE"/>
<path fill-rule="evenodd" clip-rule="evenodd" d="M34.7826 26.2609C35.8198 26.2609 36.7099 27.1186 37.1294 28.3478H32.4358C32.8553 27.1186 33.7454 26.2609 34.7826 26.2609ZM39.976 30.4348C39.9906 30.2626 40 30.0894 40 29.913C40 26.743 37.6636 24.1739 34.7826 24.1739C31.9015 24.1739 29.5652 26.743 29.5652 29.913C29.5652 33.0831 31.9015 35.6522 34.7826 35.6522C36.809 35.6522 38.5621 34.3781 39.4261 32.5217H36.6024C36.1318 33.1656 35.4911 33.5652 34.7826 33.5652C33.472 33.5652 32.3941 32.1993 32.2114 30.4348H39.976Z" fill="#FEFEFE"/>
<path fill-rule="evenodd" clip-rule="evenodd" d="M31.6521 22.087H37.913V20H31.6521V22.087Z" fill="#FEFEFE"/>
</svg>
