<?xml version="1.0" encoding="UTF-8"?>
<svg id="Layer_1" data-name="Layer 1" xmlns="http://www.w3.org/2000/svg" version="1.1" viewBox="0 0 151.8 154.6">
  <defs>
    <style>
      .cls-1 {
        fill: #8cc152;
        fill-rule: evenodd;
        stroke-width: 0px;
      }
    </style>
  </defs>
  <path class="cls-1" d="M134.8,128.7c10.5-10.4,10.3-23.7,10.3-39.6s-7-62.7-7-62.7c0,0-49.7,62.7-64.2,62.8-14.7.1-65.1-37.1-65.1-37.1,0,0-3.1,23-1.6,43.8,1.3,16.8,5.1,28.7,9.9,35.1,3.5,4.7,7.9,8.6,12.8,8.6s3.4-.2,7.6-.2c10.8-.5,24.1-.9,40.1-.9,14.8,0,27.6.3,38.1.8.1,0,8.6-.2,19.1-10.6Z"/>
</svg>