<svg width="56" height="56" viewBox="0 0 56 56" fill="none" xmlns="http://www.w3.org/2000/svg">
<circle cx="28" cy="28" r="28" fill="#8CC152"/>
<path fill-rule="evenodd" clip-rule="evenodd" d="M28 16C21.3729 16 16 21.3718 16 28C16 33.7308 20.0205 38.8073 25.3913 40V36.8696H24.3478C21.6087 36.8696 20.6518 32.6957 19.1304 32.6957C22.0438 32.6957 22.6083 34.7826 24.3478 34.7826C24.3478 34.7826 25.3913 34.913 25.3913 33.7391V33.375C22.3537 32.5151 20.1739 30.2028 20.1739 27.4783C20.1739 26.0393 20.7875 24.7172 21.807 23.6602C21.2915 22.5478 21.4522 20.9826 22.2609 20.1739C22.9746 20.3628 24.0588 20.9722 24.7464 21.7892C25.7388 21.4261 26.8376 21.2174 28 21.2174C29.1624 21.2174 30.2612 21.4261 31.2536 21.7892C31.9412 20.9722 33.0254 20.3628 33.7391 20.1739C34.5478 20.9826 34.7085 22.5478 34.193 23.6602C35.2125 24.7172 35.8261 26.0393 35.8261 27.4783C35.8261 30.3332 33.4344 32.7374 30.1694 33.4897C30.4438 34.0083 30.6087 34.7085 30.6087 35.8261V40C35.9795 38.8073 40 33.7308 40 28C40 21.3718 34.6271 16 28 16Z" fill="#FEFEFE"/>
</svg>
