<svg width="56" height="56" viewBox="0 0 56 56" fill="none" xmlns="http://www.w3.org/2000/svg">
<circle cx="28" cy="28" r="28" fill="#FF6565"/>
<path fill-rule="evenodd" clip-rule="evenodd" d="M40 33.7394C40 37.1966 37.1966 40 33.7394 40H22.2606C18.8034 40 16 37.1966 16 33.7394V22.2606C16 18.8034 18.8034 16 22.2606 16H33.7394C37.1966 16 40 18.8034 40 22.2606V33.7394Z" stroke="#FEFEFE" stroke-linecap="round" stroke-linejoin="round"/>
<path fill-rule="evenodd" clip-rule="evenodd" d="M34.2857 28C34.2857 31.472 31.4719 34.2857 27.9999 34.2857C24.5279 34.2857 21.7142 31.472 21.7142 28C21.7142 24.528 24.5279 21.7143 27.9999 21.7143C31.4719 21.7143 34.2857 24.528 34.2857 28Z" stroke="#FEFEFE" stroke-linecap="round" stroke-linejoin="round"/>
<path fill-rule="evenodd" clip-rule="evenodd" d="M35.4286 20C35.4286 20.3154 35.1726 20.5714 34.8572 20.5714C34.5418 20.5714 34.2858 20.3154 34.2858 20C34.2858 19.6846 34.5418 19.4286 34.8572 19.4286C35.1726 19.4286 35.4286 19.6846 35.4286 20Z" stroke="#FEFEFE" stroke-linecap="round" stroke-linejoin="round"/>
</svg>
