<svg width="56" height="56" viewBox="0 0 56 56" fill="none" xmlns="http://www.w3.org/2000/svg">
<circle cx="28" cy="28" r="28" fill="#FFAD4C"/>
<path fill-rule="evenodd" clip-rule="evenodd" d="M21.5714 19.2857C21.5714 20.549 20.549 21.5714 19.2857 21.5714C18.0225 21.5714 17 20.549 17 19.2857C17 18.0225 18.0225 17 19.2857 17C20.549 17 21.5714 18.0225 21.5714 19.2857Z" fill="#FEFEFE"/>
<path fill-rule="evenodd" clip-rule="evenodd" d="M17 39.8571H21.5714V24.619H17V39.8571Z" fill="#FEFEFE"/>
<path fill-rule="evenodd" clip-rule="evenodd" d="M33.7619 24.619C31.5539 24.619 30.3729 25.5364 29.1904 26.9063V24.619H24.619V39.8571H29.1904V31.4762C29.1904 28.9497 30.5543 27.6667 32.2381 27.6667C33.9219 27.6667 35.2857 28.9497 35.2857 31.4762V39.8571H39.8571V31.4762C39.8571 27.3177 37.5242 24.619 33.7619 24.619Z" fill="#FEFEFE"/>
</svg>
