<svg width="220" height="66" viewBox="0 0 220 66" fill="none" xmlns="http://www.w3.org/2000/svg">
<path fill-rule="evenodd" clip-rule="evenodd" d="M74.0482 59.1575C80.1193 53.1692 79.9998 45.4647 79.9998 36.2715C79.9998 27.0775 75.9345 0 75.9345 0C75.9345 0 47.1766 36.2728 38.8097 36.3354C30.3182 36.3987 1.1589 14.8544 1.1589 14.8544C1.1589 14.8544 -0.662486 28.1769 0.261521 40.1823C1.00974 49.8899 3.23527 56.8079 5.98749 60.4996C8.02427 63.2322 10.5802 65.4545 13.3929 65.4545C13.7779 65.4545 15.3678 65.3243 17.7709 65.3243C23.9976 65.0631 31.6801 64.8167 40.9734 64.8167C49.5458 64.817 56.913 65.0028 63.0213 65.2623C63.0929 65.2623 67.9789 65.1425 74.0482 59.1575Z" fill="#001A46"/>
<path d="M132.608 7.344V7.984C131.925 8.00533 131.413 8.09067 131.072 8.24C130.731 8.368 130.496 8.624 130.368 9.008C130.261 9.37067 130.208 9.94666 130.208 10.736V26.608C130.208 27.376 130.261 27.952 130.368 28.336C130.496 28.72 130.731 28.976 131.072 29.104C131.413 29.232 131.925 29.3173 132.608 29.36V30C132.011 29.9573 131.253 29.936 130.336 29.936C129.44 29.9147 128.523 29.904 127.584 29.904C126.56 29.904 125.6 29.9147 124.704 29.936C123.808 29.936 123.083 29.9573 122.528 30V29.36C123.253 29.3173 123.797 29.232 124.16 29.104C124.544 28.976 124.8 28.72 124.928 28.336C125.056 27.952 125.12 27.376 125.12 26.608V9.296H125.344L117.408 30.032H116.896L108.256 9.424V24.752C108.256 25.9253 108.32 26.832 108.448 27.472C108.576 28.0907 108.853 28.5387 109.28 28.816C109.728 29.072 110.421 29.2533 111.36 29.36V30C110.955 29.9573 110.421 29.936 109.76 29.936C109.099 29.9147 108.48 29.904 107.904 29.904C107.413 29.904 106.912 29.9147 106.4 29.936C105.888 29.936 105.461 29.9573 105.12 30V29.36C105.803 29.2533 106.315 29.072 106.656 28.816C106.997 28.56 107.221 28.144 107.328 27.568C107.456 26.9707 107.52 26.16 107.52 25.136V10.736C107.52 9.94666 107.456 9.37067 107.328 9.008C107.221 8.624 106.987 8.368 106.624 8.24C106.283 8.09067 105.781 8.00533 105.12 7.984V7.344C105.461 7.36533 105.888 7.38667 106.4 7.408C106.912 7.42933 107.413 7.44 107.904 7.44C108.821 7.44 109.717 7.42933 110.592 7.408C111.488 7.38667 112.277 7.36533 112.96 7.344L119.68 23.568L118.88 24.304L125.312 7.44C125.675 7.44 126.048 7.44 126.432 7.44C126.816 7.44 127.2 7.44 127.584 7.44C128.523 7.44 129.44 7.42933 130.336 7.408C131.253 7.38667 132.011 7.36533 132.608 7.344ZM138.584 5.2C139.48 5.2 140.184 5.424 140.696 5.872C141.23 6.29867 141.496 6.896 141.496 7.664C141.496 8.432 141.23 9.04 140.696 9.488C140.184 9.91467 139.48 10.128 138.584 10.128C137.688 10.128 136.974 9.91467 136.44 9.488C135.928 9.04 135.672 8.432 135.672 7.664C135.672 6.896 135.928 6.29867 136.44 5.872C136.974 5.424 137.688 5.2 138.584 5.2ZM141.08 13.104V27.024C141.08 27.92 141.23 28.528 141.528 28.848C141.848 29.168 142.382 29.328 143.128 29.328V30C142.744 29.9787 142.147 29.9573 141.336 29.936C140.526 29.8933 139.704 29.872 138.872 29.872C138.04 29.872 137.198 29.8933 136.344 29.936C135.491 29.9573 134.851 29.9787 134.424 30V29.328C135.171 29.328 135.694 29.168 135.992 28.848C136.312 28.528 136.472 27.92 136.472 27.024V16.944C136.472 15.984 136.323 15.28 136.024 14.832C135.747 14.3627 135.214 14.128 134.424 14.128V13.456C135.107 13.52 135.768 13.552 136.408 13.552C137.304 13.552 138.136 13.52 138.904 13.456C139.694 13.3707 140.419 13.2533 141.08 13.104ZM151.014 4.944V27.024C151.014 27.92 151.153 28.528 151.43 28.848C151.729 29.168 152.23 29.328 152.934 29.328V30C152.529 29.9787 151.931 29.9573 151.142 29.936C150.374 29.8933 149.585 29.872 148.774 29.872C147.942 29.872 147.099 29.8933 146.246 29.936C145.414 29.9573 144.785 29.9787 144.358 30V29.328C145.105 29.328 145.627 29.168 145.926 28.848C146.246 28.528 146.406 27.92 146.406 27.024V8.784C146.406 7.824 146.257 7.12 145.958 6.672C145.681 6.20267 145.147 5.968 144.358 5.968V5.296C145.041 5.36 145.702 5.392 146.342 5.392C147.217 5.392 148.049 5.36 148.838 5.296C149.627 5.21067 150.353 5.09333 151.014 4.944ZM161.446 13.456V14.096C160.785 14.224 160.123 14.5013 159.462 14.928C158.801 15.3547 158.129 15.8987 157.446 16.56L154.982 19.12L155.302 18.512L160.774 27.664C161.009 28.048 161.254 28.3893 161.51 28.688C161.766 28.9867 162.075 29.2 162.438 29.328V30C162.118 29.9787 161.638 29.9573 160.998 29.936C160.358 29.8933 159.718 29.872 159.078 29.872C158.289 29.872 157.499 29.8933 156.71 29.936C155.921 29.9573 155.334 29.9787 154.95 30V29.328C155.377 29.328 155.665 29.232 155.814 29.04C155.963 28.8267 155.942 28.56 155.75 28.24L152.582 22.512C152.326 22.1067 152.07 21.8507 151.814 21.744C151.579 21.616 151.259 21.5413 150.854 21.52V20.912C151.302 20.8693 151.686 20.7947 152.006 20.688C152.347 20.5813 152.657 20.3787 152.934 20.08L155.366 17.712C156.091 17.0293 156.454 16.4213 156.454 15.888C156.454 15.3547 156.219 14.928 155.75 14.608C155.302 14.288 154.705 14.1173 153.958 14.096V13.456C154.555 13.4773 155.206 13.4987 155.91 13.52C156.614 13.5413 157.211 13.552 157.702 13.552C158.129 13.552 158.577 13.552 159.046 13.552C159.537 13.5307 159.995 13.52 160.422 13.52C160.849 13.4987 161.19 13.4773 161.446 13.456ZM167.528 30.224C166.568 30.224 165.768 30.0427 165.128 29.68C164.488 29.3173 164.018 28.8373 163.72 28.24C163.421 27.6213 163.272 26.9493 163.272 26.224C163.272 25.3067 163.474 24.56 163.88 23.984C164.306 23.408 164.85 22.9387 165.512 22.576C166.173 22.2133 166.866 21.9147 167.592 21.68C168.338 21.4453 169.042 21.2213 169.704 21.008C170.386 20.7733 170.93 20.5067 171.336 20.208C171.762 19.888 171.976 19.4827 171.976 18.992V16.496C171.976 15.9413 171.88 15.4507 171.688 15.024C171.517 14.576 171.24 14.2347 170.856 14C170.493 13.7653 170.013 13.648 169.416 13.648C168.989 13.648 168.562 13.712 168.136 13.84C167.709 13.9467 167.357 14.1387 167.08 14.416C167.677 14.6293 168.136 14.96 168.456 15.408C168.797 15.8347 168.968 16.3253 168.968 16.88C168.968 17.6053 168.712 18.1813 168.2 18.608C167.709 19.0347 167.122 19.248 166.44 19.248C165.672 19.248 165.085 19.0133 164.68 18.544C164.296 18.0533 164.104 17.4667 164.104 16.784C164.104 16.1653 164.253 15.6533 164.552 15.248C164.872 14.8427 165.309 14.4587 165.864 14.096C166.461 13.7547 167.176 13.488 168.008 13.296C168.861 13.104 169.778 13.008 170.76 13.008C171.741 13.008 172.626 13.1147 173.416 13.328C174.205 13.52 174.866 13.8827 175.4 14.416C175.89 14.9067 176.21 15.5147 176.36 16.24C176.509 16.944 176.584 17.84 176.584 18.928V27.632C176.584 28.1653 176.637 28.5387 176.744 28.752C176.85 28.944 177.032 29.04 177.288 29.04C177.48 29.04 177.661 28.9867 177.832 28.88C178.024 28.7733 178.226 28.6453 178.44 28.496L178.76 29.04C178.312 29.424 177.789 29.7227 177.192 29.936C176.616 30.128 175.965 30.224 175.24 30.224C174.45 30.224 173.821 30.1173 173.352 29.904C172.882 29.6693 172.541 29.36 172.328 28.976C172.136 28.592 172.04 28.144 172.04 27.632C171.528 28.4427 170.909 29.0827 170.184 29.552C169.458 30 168.573 30.224 167.528 30.224ZM169.8 28.176C170.226 28.176 170.61 28.08 170.952 27.888C171.314 27.6747 171.656 27.3333 171.976 26.864V20.304C171.784 20.624 171.517 20.912 171.176 21.168C170.834 21.424 170.472 21.6907 170.088 21.968C169.704 22.224 169.33 22.512 168.968 22.832C168.626 23.152 168.349 23.5467 168.136 24.016C167.922 24.4853 167.816 25.0507 167.816 25.712C167.816 26.544 167.997 27.1627 168.36 27.568C168.722 27.9733 169.202 28.176 169.8 28.176ZM116.704 38.896C118.112 38.896 119.264 39.1093 120.16 39.536C121.077 39.9413 121.888 40.4213 122.592 40.976C123.019 41.296 123.339 41.3387 123.552 41.104C123.787 40.848 123.947 40.2613 124.032 39.344H124.768C124.725 40.176 124.693 41.1893 124.672 42.384C124.651 43.5573 124.64 45.1253 124.64 47.088H123.904C123.797 46.1067 123.659 45.2747 123.488 44.592C123.317 43.888 123.083 43.2693 122.784 42.736C122.485 42.2027 122.059 41.7227 121.504 41.296C120.971 40.7627 120.352 40.368 119.648 40.112C118.944 39.856 118.208 39.728 117.44 39.728C116.288 39.728 115.307 40.0373 114.496 40.656C113.685 41.2533 113.024 42.0747 112.512 43.12C112.021 44.1653 111.659 45.3493 111.424 46.672C111.189 47.9733 111.072 49.328 111.072 50.736C111.072 52.1653 111.189 53.5413 111.424 54.864C111.68 56.1653 112.064 57.328 112.576 58.352C113.109 59.376 113.792 60.1867 114.624 60.784C115.456 61.3813 116.437 61.68 117.568 61.68C118.272 61.68 118.976 61.552 119.68 61.296C120.405 61.0187 121.024 60.624 121.536 60.112C122.368 59.472 122.933 58.6827 123.232 57.744C123.531 56.784 123.755 55.5147 123.904 53.936H124.64C124.64 55.9627 124.651 57.6053 124.672 58.864C124.693 60.1013 124.725 61.1467 124.768 62H124.032C123.947 61.0827 123.797 60.5067 123.584 60.272C123.392 60.0373 123.061 60.0693 122.592 60.368C121.803 60.9227 120.96 61.4133 120.064 61.84C119.189 62.2453 118.059 62.448 116.672 62.448C114.411 62.448 112.427 61.9893 110.72 61.072C109.035 60.1547 107.723 58.832 106.784 57.104C105.845 55.376 105.376 53.296 105.376 50.864C105.376 48.4747 105.856 46.384 106.816 44.592C107.797 42.8 109.131 41.4027 110.816 40.4C112.523 39.3973 114.485 38.896 116.704 38.896ZM131.747 62.224C130.787 62.224 129.987 62.0427 129.347 61.68C128.707 61.3173 128.237 60.8373 127.939 60.24C127.64 59.6213 127.491 58.9493 127.491 58.224C127.491 57.3067 127.693 56.56 128.099 55.984C128.525 55.408 129.069 54.9387 129.731 54.576C130.392 54.2133 131.085 53.9147 131.811 53.68C132.557 53.4453 133.261 53.2213 133.923 53.008C134.605 52.7733 135.149 52.5067 135.555 52.208C135.981 51.888 136.195 51.4827 136.195 50.992V48.496C136.195 47.9413 136.099 47.4507 135.907 47.024C135.736 46.576 135.459 46.2347 135.075 46C134.712 45.7653 134.232 45.648 133.635 45.648C133.208 45.648 132.781 45.712 132.355 45.84C131.928 45.9467 131.576 46.1387 131.299 46.416C131.896 46.6293 132.355 46.96 132.675 47.408C133.016 47.8347 133.187 48.3253 133.187 48.88C133.187 49.6053 132.931 50.1813 132.419 50.608C131.928 51.0347 131.341 51.248 130.659 51.248C129.891 51.248 129.304 51.0133 128.899 50.544C128.515 50.0533 128.323 49.4667 128.323 48.784C128.323 48.1653 128.472 47.6533 128.771 47.248C129.091 46.8427 129.528 46.4587 130.083 46.096C130.68 45.7547 131.395 45.488 132.227 45.296C133.08 45.104 133.997 45.008 134.979 45.008C135.96 45.008 136.845 45.1147 137.635 45.328C138.424 45.52 139.085 45.8827 139.619 46.416C140.109 46.9067 140.429 47.5147 140.579 48.24C140.728 48.944 140.803 49.84 140.803 50.928V59.632C140.803 60.1653 140.856 60.5387 140.963 60.752C141.069 60.944 141.251 61.04 141.507 61.04C141.699 61.04 141.88 60.9867 142.051 60.88C142.243 60.7733 142.445 60.6453 142.659 60.496L142.979 61.04C142.531 61.424 142.008 61.7227 141.411 61.936C140.835 62.128 140.184 62.224 139.459 62.224C138.669 62.224 138.04 62.1173 137.571 61.904C137.101 61.6693 136.76 61.36 136.547 60.976C136.355 60.592 136.259 60.144 136.259 59.632C135.747 60.4427 135.128 61.0827 134.403 61.552C133.677 62 132.792 62.224 131.747 62.224ZM134.019 60.176C134.445 60.176 134.829 60.08 135.171 59.888C135.533 59.6747 135.875 59.3333 136.195 58.864V52.304C136.003 52.624 135.736 52.912 135.395 53.168C135.053 53.424 134.691 53.6907 134.307 53.968C133.923 54.224 133.549 54.512 133.187 54.832C132.845 55.152 132.568 55.5467 132.355 56.016C132.141 56.4853 132.035 57.0507 132.035 57.712C132.035 58.544 132.216 59.1627 132.579 59.568C132.941 59.9733 133.421 60.176 134.019 60.176ZM150.421 36.944V59.024C150.421 59.92 150.57 60.528 150.869 60.848C151.189 61.168 151.722 61.328 152.469 61.328V62C152.064 61.9787 151.456 61.9573 150.645 61.936C149.834 61.8933 149.013 61.872 148.181 61.872C147.349 61.872 146.506 61.8933 145.653 61.936C144.821 61.9573 144.192 61.9787 143.765 62V61.328C144.512 61.328 145.034 61.168 145.333 60.848C145.653 60.528 145.813 59.92 145.813 59.024V40.784C145.813 39.824 145.664 39.12 145.365 38.672C145.088 38.2027 144.554 37.968 143.765 37.968V37.296C144.448 37.36 145.109 37.392 145.749 37.392C146.624 37.392 147.456 37.36 148.245 37.296C149.034 37.2107 149.76 37.0933 150.421 36.944ZM169.262 36.944V58.48C169.262 59.44 169.411 60.1547 169.71 60.624C170.009 61.072 170.542 61.296 171.31 61.296V61.968C170.649 61.904 169.987 61.872 169.326 61.872C168.43 61.872 167.587 61.904 166.798 61.968C166.03 62.032 165.315 62.1493 164.654 62.32V40.784C164.654 39.824 164.505 39.12 164.206 38.672C163.929 38.2027 163.395 37.968 162.606 37.968V37.296C163.289 37.36 163.95 37.392 164.59 37.392C165.465 37.392 166.297 37.36 167.086 37.296C167.875 37.2107 168.601 37.0933 169.262 36.944ZM161.102 45.008C162.041 45.008 162.862 45.168 163.566 45.488C164.291 45.7867 164.857 46.2987 165.262 47.024L164.878 47.376C164.601 46.864 164.227 46.5013 163.758 46.288C163.31 46.0533 162.83 45.936 162.318 45.936C161.23 45.936 160.366 46.576 159.726 47.856C159.086 49.1147 158.777 51.0667 158.798 53.712C158.798 55.5253 158.915 56.976 159.15 58.064C159.406 59.1307 159.758 59.8987 160.206 60.368C160.675 60.8373 161.209 61.072 161.806 61.072C162.531 61.072 163.182 60.784 163.758 60.208C164.334 59.632 164.643 58.8533 164.686 57.872L164.846 58.992C164.526 60.1227 164.003 60.9867 163.278 61.584C162.574 62.16 161.646 62.448 160.494 62.448C159.235 62.448 158.105 62.1387 157.102 61.52C156.121 60.9013 155.353 59.952 154.798 58.672C154.243 57.3707 153.966 55.696 153.966 53.648C153.966 51.7067 154.275 50.1067 154.894 48.848C155.513 47.568 156.355 46.608 157.422 45.968C158.51 45.328 159.737 45.008 161.102 45.008ZM180.899 45.008C182.776 45.008 184.248 45.5627 185.315 46.672C186.382 47.7813 186.915 49.5947 186.915 52.112H176.387L176.323 51.504H182.883C182.904 50.4587 182.84 49.4987 182.691 48.624C182.542 47.728 182.307 47.0133 181.987 46.48C181.667 45.9467 181.24 45.68 180.707 45.68C179.96 45.68 179.32 46.1493 178.787 47.088C178.275 48.0267 177.966 49.584 177.859 51.76L177.955 51.952C177.934 52.208 177.912 52.4747 177.891 52.752C177.891 53.0293 177.891 53.3173 177.891 53.616C177.891 55.088 178.094 56.2827 178.499 57.2C178.926 58.1173 179.459 58.7893 180.099 59.216C180.739 59.6213 181.39 59.824 182.051 59.824C182.499 59.824 182.958 59.76 183.427 59.632C183.918 59.4827 184.408 59.2267 184.899 58.864C185.39 58.48 185.848 57.9467 186.275 57.264L186.851 57.456C186.595 58.2667 186.19 59.056 185.635 59.824C185.08 60.592 184.376 61.2213 183.523 61.712C182.67 62.2027 181.646 62.448 180.451 62.448C179 62.448 177.72 62.1387 176.611 61.52C175.502 60.9013 174.627 59.9627 173.987 58.704C173.368 57.4453 173.059 55.8453 173.059 53.904C173.059 51.92 173.39 50.2667 174.051 48.944C174.734 47.6213 175.662 46.64 176.835 46C178.03 45.3387 179.384 45.008 180.899 45.008ZM199.589 45.008C200.271 45.008 200.826 45.1573 201.253 45.456C201.679 45.7333 201.989 46.096 202.181 46.544C202.394 46.992 202.501 47.4613 202.501 47.952C202.501 48.7413 202.266 49.392 201.797 49.904C201.349 50.3947 200.751 50.64 200.005 50.64C199.258 50.64 198.671 50.4587 198.245 50.096C197.839 49.712 197.637 49.2107 197.637 48.592C197.637 47.9947 197.765 47.504 198.021 47.12C198.298 46.7147 198.639 46.3733 199.045 46.096C198.746 46.0107 198.447 46.0213 198.149 46.128C197.743 46.192 197.359 46.3627 196.997 46.64C196.634 46.896 196.325 47.2267 196.069 47.632C195.813 48.016 195.61 48.4427 195.461 48.912C195.311 49.36 195.237 49.7973 195.237 50.224V58.704C195.237 59.728 195.482 60.4213 195.973 60.784C196.485 61.1467 197.242 61.328 198.245 61.328V62C197.754 61.9787 197.039 61.9573 196.101 61.936C195.162 61.8933 194.181 61.872 193.157 61.872C192.303 61.872 191.439 61.8933 190.565 61.936C189.69 61.9573 189.029 61.9787 188.581 62V61.328C189.327 61.328 189.85 61.168 190.149 60.848C190.469 60.528 190.629 59.92 190.629 59.024V48.944C190.629 47.984 190.479 47.28 190.181 46.832C189.903 46.3627 189.37 46.128 188.581 46.128V45.456C189.263 45.52 189.925 45.552 190.565 45.552C191.461 45.552 192.293 45.52 193.061 45.456C193.85 45.3707 194.575 45.2533 195.237 45.104V48.08C195.493 47.504 195.834 46.9813 196.26 46.512C196.687 46.0427 197.178 45.68 197.733 45.424C198.287 45.1467 198.906 45.008 199.589 45.008ZM207.934 62.224C206.974 62.224 206.174 62.0427 205.534 61.68C204.894 61.3173 204.425 60.8373 204.126 60.24C203.827 59.6213 203.678 58.9493 203.678 58.224C203.678 57.3067 203.881 56.56 204.286 55.984C204.713 55.408 205.257 54.9387 205.918 54.576C206.579 54.2133 207.273 53.9147 207.998 53.68C208.745 53.4453 209.449 53.2213 210.11 53.008C210.793 52.7733 211.337 52.5067 211.742 52.208C212.169 51.888 212.382 51.4827 212.382 50.992V48.496C212.382 47.9413 212.286 47.4507 212.094 47.024C211.923 46.576 211.646 46.2347 211.262 46C210.899 45.7653 210.419 45.648 209.822 45.648C209.395 45.648 208.969 45.712 208.542 45.84C208.115 45.9467 207.763 46.1387 207.486 46.416C208.083 46.6293 208.542 46.96 208.862 47.408C209.203 47.8347 209.374 48.3253 209.374 48.88C209.374 49.6053 209.118 50.1813 208.606 50.608C208.115 51.0347 207.529 51.248 206.846 51.248C206.078 51.248 205.491 51.0133 205.086 50.544C204.702 50.0533 204.51 49.4667 204.51 48.784C204.51 48.1653 204.659 47.6533 204.958 47.248C205.278 46.8427 205.715 46.4587 206.27 46.096C206.867 45.7547 207.582 45.488 208.414 45.296C209.267 45.104 210.185 45.008 211.166 45.008C212.147 45.008 213.033 45.1147 213.822 45.328C214.611 45.52 215.273 45.8827 215.806 46.416C216.297 46.9067 216.617 47.5147 216.766 48.24C216.915 48.944 216.99 49.84 216.99 50.928V59.632C216.99 60.1653 217.043 60.5387 217.15 60.752C217.257 60.944 217.438 61.04 217.694 61.04C217.886 61.04 218.067 60.9867 218.238 60.88C218.43 60.7733 218.633 60.6453 218.846 60.496L219.166 61.04C218.718 61.424 218.195 61.7227 217.598 61.936C217.022 62.128 216.371 62.224 215.646 62.224C214.857 62.224 214.227 62.1173 213.758 61.904C213.289 61.6693 212.947 61.36 212.734 60.976C212.542 60.592 212.446 60.144 212.446 59.632C211.934 60.4427 211.315 61.0827 210.59 61.552C209.865 62 208.979 62.224 207.934 62.224ZM210.206 60.176C210.633 60.176 211.017 60.08 211.358 59.888C211.721 59.6747 212.062 59.3333 212.382 58.864V52.304C212.19 52.624 211.923 52.912 211.582 53.168C211.241 53.424 210.878 53.6907 210.494 53.968C210.11 54.224 209.737 54.512 209.374 54.832C209.033 55.152 208.755 55.5467 208.542 56.016C208.329 56.4853 208.222 57.0507 208.222 57.712C208.222 58.544 208.403 59.1627 208.766 59.568C209.129 59.9733 209.609 60.176 210.206 60.176Z" fill="#001A46"/>
</svg>
