<svg width="56" height="56" viewBox="0 0 56 56" fill="none" xmlns="http://www.w3.org/2000/svg">
<circle cx="28" cy="28" r="28" fill="#4FC1E9"/>
<path fill-rule="evenodd" clip-rule="evenodd" d="M17.5652 19.0435C19.5739 21.5948 23.1718 24.0021 28 24.2609C27.7339 23.1527 27.7078 20.1464 29.8136 18.8963C30.7548 18.3381 31.6459 18 32.6957 18C34.0157 18 35.0977 18.4529 36.2497 19.5527C37.1878 19.416 38.9388 18.6637 39.3541 18.3683C39.0838 19.4056 38.0017 20.7381 37.2191 21.0543C37.937 21.0511 39.5169 20.6233 40 20.3697C39.329 21.4477 38.1572 22.4807 37.5155 22.9096C38.2584 29.5565 32.3336 37.8177 23.8261 37.8261C21.3958 37.8282 18.7558 37.3127 16 35.7391C18.7183 36.0574 21.6317 35.1767 23.3043 33.6522C21.1955 33.6042 19.0584 32.183 18.087 30C19.144 30.3287 20.1186 30.4957 20.6957 30C19.7117 29.8894 16.5217 28.1426 16.5217 24.7597C17.2553 25.3659 18.3103 25.993 19.1304 25.8261C17.7875 25.031 15.8372 22.0038 17.5652 19.0435Z" fill="#FEFEFE"/>
</svg>
